<?xml version="1.0" encoding="UTF-8"?>
<svg version="1.1" xmlns="http://www.w3.org/2000/svg" width="1080" height="1080">
<path d="M0 0 C3.38614933 -0.11232409 6.77114514 -0.19220538 10.15844727 -0.25921631 C11.11237366 -0.29617111 12.06630005 -0.33312592 13.0491333 -0.37120056 C17.55583519 -0.4191336 19.43678352 -0.31461291 23.17114258 2.42950439 C25.04907227 5.13531494 25.04907227 5.13531494 24.98657227 8.82281494 C24.04907227 12.13531494 24.04907227 12.13531494 22.04907227 14.13531494 C30.52983808 14.93654869 38.97333412 15.33828719 47.48657227 15.57281494 C56.23436855 15.85724893 64.95517925 16.23005604 73.67407227 17.01031494 C74.48287842 17.07662109 75.29168457 17.14292725 76.125 17.21124268 C88.16517648 18.38923634 97.89222097 22.35137694 106.15844727 31.45953369 C113.45568145 41.14240213 116.55061387 52.07966839 115.04907227 64.13531494 C114.17373906 67.43667941 113.1409493 70.58195674 111.92407227 73.77203369 C110.93333447 76.02789964 110.93333447 76.02789964 111.04907227 78.13531494 C119.86360617 72.87446664 125.58110783 66.99555225 128.42407227 56.94781494 C130.13677649 46.50031916 127.91681798 37.78758814 121.79125977 29.17828369 C113.77038675 19.77264112 103.84604135 18.15343212 92.04907227 17.13531494 C89.54443286 16.98245928 87.03913827 16.84014871 84.53344727 16.70562744 C83.86643295 16.66838562 83.19941864 16.6311438 82.51219177 16.59277344 C79.11164264 16.40336688 75.7121397 16.23354713 72.30908203 16.09625244 C71.04378662 16.02922119 69.77849121 15.96218994 68.47485352 15.89312744 C67.33443604 15.84301514 66.19401855 15.79290283 65.01904297 15.74127197 C61.45454157 15.01401406 60.20915213 14.02558549 58.04907227 11.13531494 C57.63059809 7.72773953 57.40890327 5.33563181 59.04907227 2.26031494 C66.00053175 -1.64988102 75.98532937 0.34735714 83.54907227 0.88531494 C84.55135361 0.95583069 84.55135361 0.95583069 85.57388306 1.027771 C104.26217972 2.36515161 120.20784109 3.87295831 133.75219727 18.23687744 C142.75284795 29.5948414 146.14054387 42.49734035 144.64672852 56.83453369 C142.32244809 69.67124584 135.75702959 80.61474569 125.04907227 88.13531494 C114.01195878 95.12995981 104.18244396 96.42305753 91.29907227 97.19781494 C89.34432983 97.32241089 89.34432983 97.32241089 87.35009766 97.44952393 C76.90076376 98.09842001 66.44742073 98.50725953 55.98168945 98.79376221 C40.6104121 98.96230413 40.6104121 98.96230413 26.04907227 103.13531494 C14.39788017 105.84292762 2.25313909 105.73822081 -9.63842773 106.13531494 C-11.91326536 106.21688274 -14.18808595 106.29892704 -16.46289062 106.38140869 C-37.0255108 107.11477552 -57.59281103 107.71590815 -78.15958691 108.31960487 C-104.76292134 109.1013889 -131.35706594 110.07754655 -157.95092773 111.13531494 C-155.09893676 153.11095285 -155.09893676 153.11095285 -148.95092773 194.69781494 C-148.73835327 195.82050781 -148.73835327 195.82050781 -148.52148438 196.96588135 C-145.5306348 211.13513362 -137.86765807 222.01723387 -125.95092773 230.13531494 C-117.92676319 234.77654122 -109.63492388 237.22955229 -100.67749023 239.27593994 C-97.05237646 240.11192006 -93.51796807 241.08455887 -89.95092773 242.13531494 C-90.53966827 230.09041899 -90.53966827 230.09041899 -91.51342773 218.07281494 C-92.88089803 203.23239963 -91.46817954 186.76018289 -81.63842773 174.88531494 C-74.41510324 167.1712338 -66.81231794 163.15089449 -56.13842773 162.63531494 C-47.41543082 162.88009292 -38.81188798 166.27167266 -32.47436523 172.36187744 C-21.3377236 185.32607052 -20.94540163 203.20691038 -18.76342773 219.44781494 C-18.48858337 221.46025941 -18.21319685 223.47262992 -17.93725586 225.48492432 C-17.26889736 230.3675582 -16.60786831 235.25113228 -15.95092773 240.13531494 C-14.96092773 239.80531494 -13.97092773 239.47531494 -12.95092773 239.13531494 C4.59703904 236.97102948 22.37242799 235.84828546 40.04907227 235.76031494 C41.90387207 235.73989136 41.90387207 235.73989136 43.79614258 235.71905518 C54.88950479 235.77450679 65.05296658 237.3060132 74.04907227 244.13531494 C75.25563477 245.03056885 75.25563477 245.03056885 76.48657227 245.94390869 C83.9162991 252.29768423 89.21557487 260.82525206 92.04907227 270.13531494 C92.23985352 270.73086182 92.43063477 271.32640869 92.62719727 271.94000244 C94.95916499 284.07487154 92.87706827 296.26696945 86.61547852 306.84625244 C77.76484198 319.78010034 67.33575833 326.92074324 52.04907227 330.13531494 C42.95522611 331.73941751 42.95522611 331.73941751 39.04907227 329.13531494 C30.728434 329.60629447 21.89431678 331.42559976 14.04907227 334.19390869 C10.70131263 335.24444264 7.67160996 335.54617998 4.17407227 335.76031494 C3.02165039 335.83508057 1.86922852 335.90984619 0.68188477 335.98687744 C-0.18694336 336.03586182 -1.05577148 336.08484619 -1.95092773 336.13531494 C-1.66347687 337.34906799 -1.376026 338.56282104 -1.0798645 339.81335449 C0.27556035 345.92698843 1.18697927 352.09577153 2.11206055 358.28668213 C2.40510574 360.22244362 2.40510574 360.22244362 2.70407104 362.1973114 C3.23582351 365.7110231 3.76360883 369.2253196 4.29044199 372.73977184 C4.73159808 375.68009663 5.17475303 378.62011873 5.61790836 381.56014276 C6.66306034 388.49411897 7.7050219 395.42856929 8.74487305 402.36334229 C9.81662461 409.51053657 10.89335434 416.65696813 11.9725858 423.80303645 C12.90099493 429.95146226 13.82654452 436.10031372 14.74975383 442.24952245 C15.30035748 445.91681921 15.85198805 449.58395365 16.40628433 453.25069427 C17.02333198 457.33368438 17.63439534 461.41754829 18.24487305 465.50152588 C18.42874573 466.71305832 18.61261841 467.92459076 18.80206299 469.1728363 C19.05015213 470.84226036 19.05015213 470.84226036 19.30325317 472.54541016 C19.52058703 473.99214426 19.52058703 473.99214426 19.74231148 475.46810532 C20.04907227 478.13531494 20.04907227 478.13531494 20.04907227 483.13531494 C25.98907227 482.47531494 31.92907227 481.81531494 38.04907227 481.13531494 C38.37907227 478.82531494 38.70907227 476.51531494 39.04907227 474.13531494 C41.87925822 471.02018143 44.78766369 470.59651543 48.86132812 470.06036377 C50.0345311 469.90042435 51.20773407 469.74048492 52.41648865 469.57569885 C53.68613968 469.41619247 54.95579071 469.2566861 56.26391602 469.09234619 C57.59803495 468.91794981 58.93206378 468.74286279 60.26600647 468.56712341 C63.07187903 468.20039219 65.87871687 467.84263499 68.68652344 467.49102783 C72.22087598 467.04766894 75.7517877 466.58168631 79.28234291 466.10916615 C129.29045841 459.45067587 129.29045841 459.45067587 146.04907227 471.13531494 C156.81066292 479.68898046 164.12217947 488.32307455 166.04907227 502.13531494 C167.00567065 516.99938211 165.019132 530.34855041 155.45532227 542.09234619 C141.79979611 556.87509738 120.63835436 558.36660918 101.86157227 561.44781494 C101.04353119 561.58300537 100.22549011 561.7181958 99.38265991 561.85748291 C97.0083936 562.24623984 94.6327196 562.62449834 92.25610352 562.99859619 C91.54829742 563.11395218 90.84049133 563.22930817 90.11123657 563.34815979 C84.40270323 564.22348967 78.61236528 564.98974595 73.04907227 563.13531494 C70.15517881 563.39641672 67.31791855 563.72784384 64.44360352 564.13140869 C63.18479622 564.30000145 63.18479622 564.30000145 61.90055847 564.47200012 C59.21998203 564.83251558 56.54081686 565.20254406 53.86157227 565.57281494 C52.04459985 565.8188852 50.22754337 566.06433557 48.41040039 566.30914307 C43.95561693 566.91067803 39.5020758 567.520748 35.04907227 568.13531494 C35.61886745 577.47564086 36.68594155 586.65850265 38.23657227 595.88531494 C38.35357483 596.59067383 38.47057739 597.29603271 38.59112549 598.02276611 C41.80272188 617.0309173 46.66082068 635.69741318 51.37402344 654.37652588 C51.68084549 655.59438782 51.98766754 656.81224976 52.30378723 658.0670166 C52.8878874 660.37868543 53.47577104 662.68940245 54.06791687 664.99902344 C54.32901749 666.02819885 54.5901181 667.05737427 54.85913086 668.11773682 C55.20504776 669.46829163 55.20504776 669.46829163 55.55795288 670.84613037 C56.04907227 673.13531494 56.04907227 673.13531494 56.04907227 676.13531494 C56.85398102 676.05951706 57.65888977 675.98371918 58.4881897 675.90562439 C108.36405273 671.21807586 158.26694094 666.85337906 208.18971407 662.69791156 C213.40260248 662.26349657 218.61499907 661.82348092 223.82720947 661.38101196 C230.28027706 660.8333538 236.73397148 660.29387579 243.18852425 659.76399809 C246.51410191 659.49082999 249.83916257 659.21341898 253.16379547 658.9288578 C266.15392159 657.81982318 279.11871429 656.92274729 292.15893555 656.75250244 C293.19630796 656.72697296 294.23368038 656.70144348 295.30248833 656.67514038 C307.09532542 656.65483878 316.40041618 660.79851282 325.11157227 668.63531494 C331.69948214 675.3620505 334.66062545 684.50283617 335.29907227 693.76031494 C335.08079842 705.35065606 330.10149349 714.45973459 321.92407227 722.38531494 C306.99352518 734.85642083 284.8855992 733.56869801 266.44836617 735.04905128 C260.5526227 735.5233316 254.65785491 736.00947954 248.7629739 736.49433601 C246.6678043 736.66655853 244.57260664 736.83843594 242.47740078 737.01021671 C190.55248892 741.26842958 138.72237664 745.99405941 86.93188477 751.69366455 C85.89940392 751.8069406 84.86692308 751.92021666 83.80315495 752.03692532 C79.03851159 752.55986935 74.27443703 753.08684509 69.51158142 753.62583923 C61.59648887 754.51186253 53.6883199 755.30612487 45.73876953 755.81060791 C45.0616262 755.85601778 44.38448286 755.90142765 43.68682003 755.94821358 C30.59664051 756.68796987 17.29028042 753.66323324 7.16625977 745.08843994 C6.46758789 744.44390869 5.76891602 743.79937744 5.04907227 743.13531494 C4.37102539 742.51140869 3.69297852 741.88750244 2.99438477 741.24468994 C-28.11972372 709.52524861 -32.70636718 636.34935638 -40.57592773 594.51031494 C-40.76582779 593.50526917 -40.76582779 593.50526917 -40.95956421 592.47991943 C-42.95092773 581.87498574 -42.95092773 581.87498574 -42.95092773 577.13531494 C-43.48830566 577.20524658 -44.02568359 577.27517822 -44.5793457 577.347229 C-79.09848372 581.78244979 -113.72946702 584.5956524 -148.47283173 586.48917007 C-155.87403374 586.89495088 -163.27427658 587.31821924 -170.67466736 587.73848915 C-172.53413467 587.84393635 -174.39362154 587.94903926 -176.25312805 588.05379295 C-188.53654178 588.74597609 -200.81363802 589.49974341 -213.08764648 590.34234619 C-294.55292163 595.92195628 -294.55292163 595.92195628 -321.95092773 588.13531494 C-323.24691895 587.77445801 -323.24691895 587.77445801 -324.5690918 587.40631104 C-337.42039629 583.73134076 -350.06102724 579.38042355 -357.06030273 567.20562744 C-372.85387285 533.06721819 -368.83511405 484.88400874 -370.07123852 447.75674725 C-371.83669152 394.81107606 -374.96096818 342.09424504 -380.1829834 289.37203979 C-381.54768474 275.57436177 -382.77304767 261.77751071 -383.76342773 247.94781494 C-383.82063995 247.15843536 -383.87785217 246.36905579 -383.9367981 245.55575562 C-385.17268171 228.35433421 -386.04653601 211.12496727 -386.51342773 193.88531494 C-386.53427429 193.11925934 -386.55512085 192.35320374 -386.57659912 191.56393433 C-387.04869845 173.28340169 -387.06150028 154.99790799 -387.07386398 136.71247864 C-387.0758986 134.35655357 -387.07964904 132.0006366 -387.08377075 129.64471436 C-387.19507711 56.59928422 -387.19507711 56.59928422 -372.06811523 41.22125244 C-361.52114061 31.50149152 -350.60308488 30.43759184 -336.57592773 29.76031494 C-331.53107357 29.45167537 -328.23481008 28.6368477 -323.91186523 26.11968994 C-317.60645332 22.9544234 -310.08949936 23.09612019 -303.20092773 22.88531494 C-297.42596585 22.55898006 -294.55071508 21.95184061 -290.61108398 17.76031494 C-280.52502627 7.88784433 -263.21637043 7.96201455 -250.07592773 7.82281494 C-248.67213867 7.77930908 -248.67213867 7.77930908 -247.23999023 7.73492432 C-246.34280273 7.72654541 -245.44561523 7.7181665 -244.52124023 7.70953369 C-243.71444824 7.69495117 -242.90765625 7.68036865 -242.07641602 7.66534424 C-239.95092773 8.13531494 -239.95092773 8.13531494 -238.1809082 9.96661377 C-236.55524957 12.83297456 -236.66877019 14.89050316 -236.95092773 18.13531494 C-237.28092773 18.79531494 -237.61092773 19.45531494 -237.95092773 20.13531494 C-229.70092773 20.13531494 -221.45092773 20.13531494 -212.95092773 20.13531494 C-213.94092773 18.65031494 -213.94092773 18.65031494 -214.95092773 17.13531494 C-215.30720751 13.78628504 -215.31397744 11.8069569 -213.70092773 8.82281494 C-209.94501093 5.20103803 -204.67931559 5.92537248 -199.73608398 5.81890869 C-198.90854111 5.797901 -198.08099823 5.77689331 -197.2283783 5.75524902 C-194.49016342 5.6883038 -191.75187374 5.62948612 -189.01342773 5.57281494 C-187.60855103 5.54304062 -187.60855103 5.54304062 -186.17529297 5.51266479 C-179.10081204 5.36609116 -172.02602356 5.24763327 -164.95092773 5.13531494 C-163.89895203 5.11750977 -162.84697632 5.09970459 -161.76312256 5.08135986 C-155.49245797 4.97656767 -149.22227159 4.89603699 -142.95089722 4.84921265 C-140.95320649 4.83163432 -138.95556364 4.80729647 -136.95803833 4.77615356 C-134.16375865 4.73460999 -131.37047576 4.7186921 -128.57592773 4.70953369 C-127.32730202 4.68333954 -127.32730202 4.68333954 -126.05345154 4.65661621 C-120.45652016 4.67773183 -120.45652016 4.67773183 -117.92749023 6.96661377 C-116.63871331 9.82866512 -116.68101003 12.03126133 -116.95092773 15.13531494 C-117.28092773 15.79531494 -117.61092773 16.45531494 -117.95092773 17.13531494 C-106.07092773 17.13531494 -94.19092773 17.13531494 -81.95092773 17.13531494 C-82.61092773 15.81531494 -83.27092773 14.49531494 -83.95092773 13.13531494 C-83.73373942 6.9454479 -83.73373942 6.9454479 -81.33111572 4.45896912 C-78.13565134 2.6819289 -75.64335088 2.65541287 -71.99291992 2.51934814 C-71.29936905 2.48964935 -70.60581818 2.45995056 -69.89125061 2.42935181 C-67.5937449 2.33453401 -65.29606589 2.26009594 -62.99780273 2.18609619 C-61.3794536 2.12422916 -59.76114715 2.06123623 -58.1428833 1.99717712 C-54.73686725 1.8652389 -51.33069052 1.7425896 -47.92407227 1.6272583 C-43.63177305 1.48184829 -39.34027379 1.32064266 -35.04877472 1.15342903 C-25.39310624 0.77773523 -15.73680671 0.46620694 -6.0776062 0.1975174 C-4.05153434 0.13825755 -2.02575057 0.06937974 0 0 Z M-187.95092773 112.13531494 C-188.07072615 122.87524261 -187.71321134 133.37135223 -186.70092773 144.07281494 C-186.63468201 144.79199097 -186.56843628 145.51116699 -186.50018311 146.25213623 C-184.45557124 197.35291531 -184.45557124 197.35291531 -160.29467773 239.41265869 C-143.75869395 252.48914061 -124.81549949 257.36567772 -104.01342773 257.19781494 C-102.94801758 257.19330322 -101.88260742 257.1887915 -100.78491211 257.18414307 C-98.17352483 257.17243281 -95.56225649 257.15603218 -92.95092773 257.13531494 C-95.64210554 255.6772488 -97.99401292 254.7980359 -101.00561523 254.27593994 C-120.96415013 250.59186373 -140.48290746 242.73124735 -152.74389648 225.63531494 C-166.69482601 203.74217181 -167.33000732 173.97619727 -169.63842773 148.88531494 C-169.85186065 146.63914887 -170.06605145 144.39305467 -170.28100586 142.14703369 C-171.23208713 132.14765535 -172.12780028 122.14609938 -172.95092773 112.13531494 C-177.90092773 112.13531494 -182.85092773 112.13531494 -187.95092773 112.13531494 Z M36.26000977 250.35406494 C35.31899414 250.39918213 34.37797852 250.44429932 33.40844727 250.49078369 C31.93118164 250.56232666 31.93118164 250.56232666 30.42407227 250.63531494 C28.93520508 250.70685791 28.93520508 250.70685791 27.41625977 250.77984619 C24.96050983 250.89791109 22.50478207 251.01641887 20.04907227 251.13531494 C20.04907227 251.46531494 20.04907227 251.79531494 20.04907227 252.13531494 C21.23243164 252.22168213 22.41579102 252.30804932 23.63500977 252.39703369 C35.29685565 253.37800581 45.18419144 254.94177545 53.45141602 264.01031494 C60.2780149 273.09019219 63.55832369 283.47804079 62.88891602 294.85797119 C61.82110775 301.39959271 58.98502551 307.2409966 56.04907227 313.13531494 C63.12185671 311.68448736 68.35819838 306.61915166 72.66625977 301.04156494 C77.84790328 293.06980569 78.90387056 285.53809617 78.04907227 276.13531494 C76.07004548 266.90428398 69.60145093 258.99162564 61.92407227 253.63531494 C54.51122473 249.9024796 44.37773518 249.96284926 36.26000977 250.35406494 Z M-88.95092773 253.13531494 C-89.94092773 254.12531494 -90.93092773 255.11531494 -91.95092773 256.13531494 C-90.63092773 256.13531494 -89.31092773 256.13531494 -87.95092773 256.13531494 C-88.28092773 255.14531494 -88.61092773 254.15531494 -88.95092773 253.13531494 Z M-114.36108398 354.38922119 C-122.9862295 363.86204686 -125.73511278 375.22949335 -128.23999023 387.51812744 C-128.95092773 390.13531494 -128.95092773 390.13531494 -130.95092773 392.13531494 C-137.12086589 392.69621841 -137.12086589 392.69621841 -139.67358398 390.97125244 C-142.56376553 386.81716887 -140.73971745 380.82957567 -139.95092773 376.13531494 C-137.81042694 366.98711653 -134.57706365 358.32455979 -129.95092773 350.13531494 C-140.09591153 353.61926845 -147.32364856 362.7820413 -151.95092773 372.13531494 C-153.57721593 376.40750776 -154.83218203 380.70553397 -155.95092773 385.13531494 C-156.16491211 385.93968994 -156.37889648 386.74406494 -156.59936523 387.57281494 C-162.15120537 410.1020213 -161.81761998 442.89263752 -149.76879883 463.39703369 C-140.42965175 478.32190132 -127.07750363 489.25946631 -109.75561523 493.69781494 C-102.28906228 494.83341235 -94.43808532 493.73245021 -86.95092773 493.13531494 C-86.95092773 492.80531494 -86.95092773 492.47531494 -86.95092773 492.13531494 C-87.73854492 491.92777588 -88.52616211 491.72023682 -89.33764648 491.50640869 C-107.60088997 486.34082858 -122.20105622 476.62738553 -131.95092773 460.13531494 C-132.74950195 458.80113525 -132.74950195 458.80113525 -133.56420898 457.44000244 C-139.68214191 446.29716678 -143.95601075 430.92728063 -142.95092773 418.13531494 C-140.73445765 413.41871938 -140.73445765 413.41871938 -137.01342773 412.07281494 C-133.95092773 412.13531494 -133.95092773 412.13531494 -131.85327148 413.51031494 C-128.9959527 417.45306284 -128.93696612 421.43779055 -128.45092773 426.19781494 C-126.33856047 443.22118014 -120.3860636 456.85861074 -106.95092773 468.13531494 C-94.80582582 476.82701727 -83.21815829 479.32121892 -68.51342773 479.19781494 C-66.68452688 479.18644085 -64.85562342 479.1754794 -63.02671814 479.1648407 C-62.07604934 479.15928885 -61.12538054 479.15373701 -60.14590359 479.14801693 C-59.42156156 479.14382527 -58.69721952 479.13963362 -57.95092773 479.13531494 C-60.07206859 462.54577289 -62.35094967 445.98180915 -64.70874023 429.42437744 C-64.88126186 428.21107128 -65.05378349 426.99776512 -65.23153305 425.74769211 C-66.13895612 419.36610823 -67.04790772 412.98474446 -67.95825195 406.60357666 C-68.8039297 400.67383096 -69.64572944 394.74354765 -70.4855777 388.81297457 C-71.29942126 383.06779631 -72.11783795 377.32327684 -72.93795395 371.57899094 C-73.28463065 369.14619003 -73.6299032 366.7131886 -73.9737587 364.27998734 C-74.45066865 360.90778465 -74.93278477 357.53636686 -75.41625977 354.1651001 C-75.55756317 353.15754669 -75.69886658 352.14999329 -75.8444519 351.11190796 C-76.04195038 349.7461261 -76.04195038 349.7461261 -76.24343872 348.35275269 C-76.4131956 347.16005485 -76.4131956 347.16005485 -76.58638191 345.9432621 C-76.78015918 344.12161961 -76.78015918 344.12161961 -77.95092773 343.13531494 C-90.02116586 342.48482307 -105.3707462 345.90657307 -114.36108398 354.38922119 Z M103.04907227 478.13531494 C105.70902123 479.90861425 107.77023567 480.82358065 110.73657227 481.88531494 C120.54002598 485.76109897 128.76513855 492.92211533 133.48657227 502.44781494 C137.6025343 513.95825422 135.97328 527.25369517 131.04907227 538.13531494 C131.04907227 538.79531494 131.04907227 539.45531494 131.04907227 540.13531494 C137.97899319 538.7137927 143.59234096 533.79356238 147.47875977 528.00640869 C151.99621905 519.31771875 152.42979395 508.71353035 150.43579102 499.21343994 C147.21986021 490.08983008 140.47662767 484.47547474 132.12719727 480.04547119 C128.24601083 478.34562826 124.85264314 478.01418399 120.62719727 478.03765869 C119.60239258 478.04088135 118.57758789 478.044104 117.52172852 478.04742432 C115.92651367 478.05999268 115.92651367 478.05999268 114.29907227 478.07281494 C113.22012695 478.07732666 112.14118164 478.08183838 111.02954102 478.08648682 C108.36932844 478.09825767 105.70922862 478.11470095 103.04907227 478.13531494 Z " fill="#FDDD59" transform="translate(523.950927734375,127.86468505859375)"/>
<path d="M0 0 C2.02182313 3.07317115 2.09005517 4.75747881 1.5625 8.375 C0.609375 10.484375 0.609375 10.484375 -1.4375 12.375 C-4.46848014 13.16805352 -7.5071123 13.3935095 -10.625 13.625 C-11.8924707 13.74101562 -11.8924707 13.74101562 -13.18554688 13.859375 C-15.26811549 14.04762979 -17.35268707 14.21348544 -19.4375 14.375 C-19.15004913 15.58875305 -18.86259827 16.8025061 -18.56643677 18.05303955 C-17.21101191 24.16667349 -16.29959299 30.33545659 -15.37451172 36.52636719 C-15.08146652 38.46212868 -15.08146652 38.46212868 -14.78250122 40.43699646 C-14.25074875 43.95070816 -13.72296343 47.46500466 -13.19613028 50.9794569 C-12.75497419 53.91978169 -12.31181923 56.85980379 -11.86866391 59.79982781 C-10.82351192 66.73380403 -9.78155036 73.66825435 -8.74169922 80.60302734 C-7.66994766 87.75022163 -6.59321792 94.89665318 -5.51398647 102.04272151 C-4.58557733 108.19114732 -3.66002775 114.33999878 -2.73681843 120.48920751 C-2.18621479 124.15650427 -1.63458422 127.82363871 -1.08028793 131.49037933 C-0.46324028 135.57336944 0.14782308 139.65723335 0.75830078 143.74121094 C0.94217346 144.95274338 1.12604614 146.16427582 1.31549072 147.41252136 C1.56357986 149.08194542 1.56357986 149.08194542 1.81668091 150.78509521 C2.03401477 152.23182932 2.03401477 152.23182932 2.25573921 153.70779037 C2.5625 156.375 2.5625 156.375 2.5625 161.375 C11.4725 160.385 11.4725 160.385 20.5625 159.375 C20.8925 157.065 21.2225 154.755 21.5625 152.375 C24.39268595 149.25986649 27.30109143 148.83620049 31.37475586 148.30004883 C32.54795883 148.14010941 33.7211618 147.98016998 34.92991638 147.81538391 C36.19956741 147.65587753 37.46921844 147.49637115 38.77734375 147.33203125 C40.11146269 147.15763486 41.44549151 146.98254785 42.7794342 146.80680847 C45.58530676 146.44007725 48.3921446 146.08232005 51.19995117 145.73071289 C54.73430372 145.287354 58.26521544 144.82137136 61.79577065 144.3488512 C111.80388615 137.69036093 111.80388615 137.69036093 128.5625 149.375 C139.32409065 157.92866552 146.6356072 166.56275961 148.5625 180.375 C149.51909838 195.23906717 147.53255974 208.58823547 137.96875 220.33203125 C124.31322384 235.11478244 103.15178209 236.60629424 84.375 239.6875 C83.14793839 239.89028564 83.14793839 239.89028564 81.89608765 240.09716797 C79.52182134 240.48592489 77.14614733 240.8641834 74.76953125 241.23828125 C74.06172516 241.35363724 73.35391907 241.46899323 72.62466431 241.58784485 C66.91613096 242.46317473 61.12579301 243.229431 55.5625 241.375 C52.66860655 241.63610178 49.83134628 241.9675289 46.95703125 242.37109375 C46.11782639 242.48348892 45.27862152 242.59588409 44.41398621 242.71168518 C41.73340976 243.07220064 39.05424459 243.44222912 36.375 243.8125 C34.55802759 244.05857026 32.74097111 244.30402063 30.92382812 244.54882812 C26.46904467 245.15036309 22.01550354 245.76043306 17.5625 246.375 C18.13229519 255.71532591 19.19936929 264.89818771 20.75 274.125 C20.86700256 274.83035889 20.98400513 275.53571777 21.10455322 276.26245117 C24.31614962 295.27060236 29.17424842 313.93709824 33.88745117 332.61621094 C34.19427322 333.83407288 34.50109528 335.05193481 34.81721497 336.30670166 C35.40131513 338.61837049 35.98919877 340.92908751 36.5813446 343.2387085 C36.84244522 344.26788391 37.10354584 345.29705933 37.37255859 346.35742188 C37.71847549 347.70797668 37.71847549 347.70797668 38.07138062 349.08581543 C38.5625 351.375 38.5625 351.375 38.5625 354.375 C39.36740875 354.29920212 40.1723175 354.22340424 41.00161743 354.14530945 C90.87748047 349.45776092 140.78036867 345.09306411 190.70314181 340.93759662 C195.91603021 340.50318163 201.1284268 340.06316598 206.34063721 339.62069702 C212.7937048 339.07303886 219.24739922 338.53356084 225.70195198 338.00368315 C229.02752964 337.73051505 232.3525903 337.45310404 235.67722321 337.16854286 C248.66734932 336.05950824 261.63214203 335.16243234 274.67236328 334.9921875 C275.7097357 334.96665802 276.74710812 334.94112854 277.81591606 334.91482544 C289.60875316 334.89452384 298.91384392 339.03819787 307.625 346.875 C314.21290988 353.60173556 317.17405319 362.74252122 317.8125 372 C317.59422616 383.59034112 312.61492122 392.69941965 304.4375 400.625 C289.50695292 413.09610588 267.39902694 411.80838307 248.9617939 413.28873634 C243.06605043 413.76301665 237.17128264 414.2491646 231.27640164 414.73402107 C229.18123204 414.90624359 227.08603438 415.078121 224.99082851 415.24990177 C173.06591665 419.50811464 121.23580437 424.23374447 69.4453125 429.93334961 C68.41283166 430.04662566 67.38035082 430.15990171 66.31658268 430.27661037 C61.55193932 430.79955441 56.78786476 431.32653015 52.02500916 431.86552429 C44.1099166 432.75154759 36.20174763 433.54580993 28.25219727 434.05029297 C27.23648226 434.11840777 27.23648226 434.11840777 26.20024776 434.18789864 C13.11006824 434.92765493 -0.19629184 431.9029183 -10.3203125 423.328125 C-11.01898437 422.68359375 -11.71765625 422.0390625 -12.4375 421.375 C-13.11554688 420.75109375 -13.79359375 420.1271875 -14.4921875 419.484375 C-45.60629599 387.76493366 -50.19293945 314.58904144 -58.0625 272.75 C-58.18910004 272.07996948 -58.31570007 271.40993896 -58.44613647 270.71960449 C-60.4375 260.1146708 -60.4375 260.1146708 -60.4375 255.375 C-69.04204772 255.80511182 -77.64613452 256.24395742 -86.25 256.6875 C-87.53625275 256.75369537 -88.82250549 256.81989075 -90.1477356 256.88809204 C-108.93421408 257.8611004 -127.70004366 258.98807278 -146.4543457 260.46020508 C-154.44644803 261.07432175 -162.42507785 261.53056936 -170.44140625 261.64453125 C-171.20154526 261.66472824 -171.96168427 261.68492523 -172.74485779 261.70573425 C-177.90575354 261.72600927 -177.90575354 261.72600927 -180.40991211 260.07299805 C-182.1880881 257.1347196 -181.84594099 254.70087665 -181.4375 251.375 C-179.438471 248.82057461 -178.17032712 247.5590007 -174.99732971 246.76231384 C-174.08241257 246.70918533 -173.16749542 246.65605682 -172.22485352 246.60131836 C-171.17312958 246.53111984 -170.12140564 246.46092133 -169.03781128 246.38859558 C-167.89224762 246.33125748 -166.74668396 246.27391937 -165.56640625 246.21484375 C-164.36025665 246.13974075 -163.15410706 246.06463776 -161.91140747 245.98725891 C-158.62417457 245.78627139 -155.33680863 245.60188858 -152.04824448 245.42500305 C-148.62682636 245.23707628 -145.20670082 245.02802213 -141.78637695 244.82128906 C-135.4393547 244.44097385 -129.09141254 244.07970234 -122.74279881 243.72704506 C-115.3616251 243.31664538 -107.98165116 242.88646804 -100.6015625 242.45703125 C-88.21478492 241.73998095 -75.82670763 241.04867238 -63.4375 240.375 C-64.09078638 235.70119148 -64.74816563 231.02798101 -65.40893555 226.35522461 C-65.63199729 224.77399308 -65.85404428 223.19261799 -66.07495117 221.61108398 C-67.41360356 212.03316338 -68.88785681 202.50793554 -70.68041992 193.00366211 C-71.80023894 186.15727426 -72.57702588 179.25879296 -73.4375 172.375 C-88.9475 172.375 -104.4575 172.375 -120.4375 172.375 C-120.4375 172.045 -120.4375 171.715 -120.4375 171.375 C-116.8075 171.045 -113.1775 170.715 -109.4375 170.375 C-110.56285156 169.93800781 -110.56285156 169.93800781 -111.7109375 169.4921875 C-131.20927552 161.68302945 -145.76382264 149.40561226 -154.8984375 130.21875 C-159.12851718 120.21188665 -162.28908925 107.21340863 -161.4375 96.375 C-159.76948309 92.88959154 -158.69167604 91.54445069 -155.4375 89.375 C-152.05810869 89.51580797 -150.14586516 89.61021918 -147.80053711 92.14233398 C-146.3178968 94.57091103 -145.93001656 96.1621977 -145.62890625 98.97265625 C-145.52416992 99.85131348 -145.41943359 100.7299707 -145.31152344 101.63525391 C-145.2087207 102.55999512 -145.10591797 103.48473633 -145 104.4375 C-142.90624006 120.68761838 -137.46179042 134.65881168 -124.4375 145.375 C-112.25383663 153.99759263 -100.66235909 156.35558464 -86 156.9375 C-84.98228516 156.98068359 -83.96457031 157.02386719 -82.91601562 157.06835938 C-80.4232882 157.17368589 -77.93045338 157.27521235 -75.4375 157.375 C-75.61005814 156.51869492 -75.78261627 155.66238983 -75.96040344 154.78013611 C-78.49212572 141.79369905 -80.35920677 128.72427293 -82.23046875 115.62890625 C-82.58478471 113.16224977 -82.93922314 110.69561088 -83.29377747 108.22898865 C-84.03153785 103.08993471 -84.7665245 97.950493 -85.49975586 92.81079102 C-86.43790906 86.23759157 -87.3850626 79.66572344 -88.33451366 73.09414768 C-89.06719886 68.01347759 -89.79411403 62.93199424 -90.51940346 57.8502636 C-90.8662508 55.42637305 -91.21511093 53.0027696 -91.56606102 50.57946968 C-92.05551245 47.19516533 -92.53691349 43.80980684 -93.01635742 40.42407227 C-93.1612561 39.43428375 -93.30615479 38.44449524 -93.45544434 37.42471313 C-93.58573532 36.49307846 -93.71602631 35.56144379 -93.8502655 34.60157776 C-93.96435855 33.80472848 -94.0784516 33.0078792 -94.19600201 32.18688297 C-94.53298585 28.26321012 -94.4375 24.31311716 -94.4375 20.375 C-82.5575 19.385 -82.5575 19.385 -70.4375 18.375 C-72.7475 18.045 -75.0575 17.715 -77.4375 17.375 C-79.375 16.1875 -79.375 16.1875 -80.4375 14.375 C-80.9540713 10.90659271 -80.98684801 9.14233482 -78.92211914 6.25830078 C-75.54711401 3.70010195 -72.33806555 3.50183217 -68.24609375 3.1796875 C-67.03131348 3.06293167 -67.03131348 3.06293167 -65.79199219 2.94381714 C-63.15427605 2.6949837 -60.51509698 2.47201662 -57.875 2.25 C-56.06051052 2.08494813 -54.24613846 1.91860036 -52.43188477 1.75097656 C-47.10258461 1.26536673 -41.77071479 0.81525411 -36.4375 0.375 C-35.31045654 0.28091858 -35.31045654 0.28091858 -34.16064453 0.18493652 C-3.54904514 -2.36603009 -3.54904514 -2.36603009 0 0 Z M85.5625 156.375 C88.22244896 158.14829931 90.28366341 159.06326571 93.25 160.125 C103.05345371 164.00078403 111.27856628 171.16180039 116 180.6875 C120.11596203 192.19793928 118.48670773 205.49338023 113.5625 216.375 C113.5625 217.035 113.5625 217.695 113.5625 218.375 C120.49242092 216.95347776 126.10576869 212.03324744 129.9921875 206.24609375 C134.50964679 197.5574038 134.94322168 186.95321541 132.94921875 177.453125 C129.73328794 168.32951514 122.99005541 162.71515979 114.640625 158.28515625 C110.75943857 156.58531332 107.36607088 156.25386905 103.140625 156.27734375 C102.11582031 156.28056641 101.09101562 156.28378906 100.03515625 156.28710938 C98.43994141 156.29967773 98.43994141 156.29967773 96.8125 156.3125 C95.73355469 156.31701172 94.65460938 156.32152344 93.54296875 156.32617188 C90.88275617 156.33794273 88.22265635 156.35438601 85.5625 156.375 Z " fill="#FD0100" transform="translate(541.4375,449.625)"/>
<path d="M0 0 C1.40378906 -0.04350586 1.40378906 -0.04350586 2.8359375 -0.08789062 C3.733125 -0.09626953 4.6303125 -0.10464844 5.5546875 -0.11328125 C6.36147949 -0.12786377 7.16827148 -0.14244629 7.99951172 -0.1574707 C10.125 0.3125 10.125 0.3125 11.88720703 2.14770508 C13.55599493 5.06627358 13.54741802 7.00355887 13.125 10.3125 C11.57993534 12.34917615 10.40353844 13.17323078 8.125 14.3125 C6.27342724 14.49946842 4.41643791 14.63404893 2.55859375 14.7421875 C1.43259766 14.81566406 0.30660156 14.88914063 -0.85351562 14.96484375 C-3.21512429 15.11155949 -5.57711093 15.25233007 -7.93945312 15.38671875 C-19.45590445 16.158406 -28.38489744 18.33472099 -36.5 27 C-42.36486179 33.95479186 -44.89560975 41.55904099 -45.10864258 50.59008789 C-45.13569778 51.61787857 -45.16275299 52.64566925 -45.19062805 53.7046051 C-45.21666611 54.80368698 -45.24270416 55.90276886 -45.26953125 57.03515625 C-45.33827987 59.37046976 -45.40796987 61.70575571 -45.47851562 64.04101562 C-45.58608281 67.71676099 -45.68790321 71.39228073 -45.77368164 75.06860352 C-45.85892814 78.6206993 -45.96843071 82.17136916 -46.08203125 85.72265625 C-46.11197929 87.37431541 -46.11197929 87.37431541 -46.14253235 89.05934143 C-46.19729988 90.59629921 -46.19729988 90.59629921 -46.25317383 92.16430664 C-46.27680496 93.06411758 -46.3004361 93.96392853 -46.32478333 94.89100647 C-47.04756304 98.0719468 -48.35048539 99.30395714 -50.875 101.3125 C-53.875 101.8125 -53.875 101.8125 -56.875 101.3125 C-59.46477867 99.27543762 -60.72658217 98.09938433 -61.3449707 94.82080078 C-61.33038818 93.89251465 -61.31580566 92.96422852 -61.30078125 92.0078125 C-61.29320801 90.96012695 -61.28563477 89.91244141 -61.27783203 88.83300781 C-61.24802246 87.71249023 -61.21821289 86.59197266 -61.1875 85.4375 C-61.17058105 84.28088867 -61.15366211 83.12427734 -61.13623047 81.93261719 C-61.07464072 78.39144919 -60.98017675 74.85261978 -60.875 71.3125 C-60.84744629 70.27383789 -60.81989258 69.23517578 -60.79150391 68.16503906 C-60.61246731 61.87081599 -60.30984375 55.59415844 -59.875 49.3125 C-59.78734375 47.99765625 -59.6996875 46.6828125 -59.609375 45.328125 C-58.67659973 36.20314952 -55.34221137 29.17192536 -50.875 21.3125 C-56.84268044 22.20627703 -60.8970398 27.11493632 -64.875 31.3125 C-80.16351348 52.43560944 -75.20353081 84.6709433 -75.13335419 109.4852066 C-75.12490223 112.53528221 -75.11903358 115.58535468 -75.11358643 118.63543701 C-74.98542768 182.07937284 -72.22572268 245.07836279 -65.27734375 308.16015625 C-64.02947369 319.51368897 -63.05390789 330.84888106 -62.375 342.25 C-62.31496796 343.22119781 -62.25493591 344.19239563 -62.19308472 345.19302368 C-60.76797077 368.53922337 -60.1071385 391.91380492 -59.34679031 415.28862 C-58.57099961 439.06130311 -57.64268805 462.7813896 -55.8125 486.5 C-55.7304129 487.56850189 -55.64832581 488.63700378 -55.56375122 489.73788452 C-53.97950566 513.47411694 -53.97950566 513.47411694 -50 536.875 C-49.82710449 537.62112549 -49.65420898 538.36725098 -49.47607422 539.13598633 C-48.18358994 544.49048035 -46.74613133 549.56487927 -43.875 554.3125 C-43.5140625 554.91964844 -43.153125 555.52679687 -42.78125 556.15234375 C-32.43364435 570.56958699 -7.97180043 573.00980274 8.125 576.3125 C9.06601562 576.51359375 10.00703125 576.7146875 10.9765625 576.921875 C15.65167829 577.50191418 20.29461024 577.41644313 25 577.375 C26.46179688 577.36823242 26.46179688 577.36823242 27.953125 577.36132812 C30.34381434 577.34960906 32.7343744 577.33320219 35.125 577.3125 C33.39830078 576.96638672 33.39830078 576.96638672 31.63671875 576.61328125 C26.45567879 575.56025563 21.28785693 574.45117287 16.125 573.3125 C15.29774414 573.13058105 14.47048828 572.94866211 13.61816406 572.76123047 C-1.3714112 569.38087281 -18.87300092 564.44861539 -28.28125 551.35546875 C-36.59036858 536.89050927 -39.49931577 515.7701573 -38.875 499.3125 C-37.3125 496.75 -37.3125 496.75 -34.875 495.3125 C-31.4669146 495.37229097 -28.99896808 495.47497208 -26.21289062 497.55102539 C-24.45638199 499.86365491 -24.317846 501.55315148 -24.03125 504.43359375 C-23.92111572 505.44607178 -23.81098145 506.4585498 -23.69750977 507.50170898 C-23.59108154 508.57364502 -23.48465332 509.64558105 -23.375 510.75 C-21.99338006 523.20489359 -21.99338006 523.20489359 -18.875 535.3125 C-18.60042969 536.13621094 -18.32585937 536.95992187 -18.04296875 537.80859375 C-15.28116047 544.96579053 -11.55345717 548.58198336 -4.63671875 551.8359375 C12.25077427 558.88856869 30.00101392 561.83230287 48.20239258 562.50488281 C56.39044271 562.88997487 56.39044271 562.88997487 60.37109375 565.1796875 C62.125 567.3125 62.125 567.3125 62.625 570.375 C62.07537398 573.60405285 61.46656839 574.21380705 59.125 576.3125 C60.56237706 576.34056159 61.99993423 576.35934998 63.4375 576.375 C64.23800781 576.38660156 65.03851563 576.39820313 65.86328125 576.41015625 C68.53227049 576.33024639 71.10857166 576.13040082 73.76171875 575.86328125 C81.4514062 575.13255778 89.1607768 574.87670557 96.87591553 574.55368042 C114.9980837 573.7878105 133.08197095 572.713627 151.16992188 571.36572266 C159.89732885 570.7190857 168.62179477 570.14867661 177.36328125 569.7265625 C178.21755707 569.68490463 179.07183289 569.64324677 179.95199585 569.60032654 C187.01323861 569.27647982 194.05625325 569.20557778 201.125 569.3125 C201.125 569.6425 201.125 569.9725 201.125 570.3125 C159.54669625 574.57791538 118.02592635 577.84785128 76.29296875 580.11108398 C63.89352851 580.78798552 51.50191982 581.53896784 39.11328125 582.390625 C-44.42131022 588.11496689 -44.42131022 588.11496689 -71.875 580.3125 C-73.17099121 579.95164307 -73.17099121 579.95164307 -74.49316406 579.58349609 C-87.34446856 575.90852582 -99.98509951 571.55760861 -106.984375 559.3828125 C-122.77794511 525.24440325 -118.75918631 477.0611938 -119.99531078 439.9339323 C-121.76076379 386.98826112 -124.88504045 334.2714301 -130.10705566 281.54922485 C-131.471757 267.75154683 -132.69711993 253.95469577 -133.6875 240.125 C-133.74471222 239.33562042 -133.80192444 238.54624084 -133.86087036 237.73294067 C-135.09675398 220.53151927 -135.97060828 203.30215233 -136.4375 186.0625 C-136.45834656 185.2964444 -136.47919312 184.53038879 -136.50067139 183.74111938 C-136.97277071 165.46058675 -136.98557254 147.17509304 -136.99793625 128.8896637 C-136.99997086 126.53373863 -137.0037213 124.17782166 -137.00784302 121.82189941 C-137.11914937 48.77646928 -137.11914937 48.77646928 -121.9921875 33.3984375 C-111.44521288 23.67867658 -100.52715715 22.6147769 -86.5 21.9375 C-81.45514584 21.62886042 -78.15888235 20.81403276 -73.8359375 18.296875 C-67.53052558 15.13160846 -60.01357163 15.27330525 -53.125 15.0625 C-47.35003812 14.73616512 -44.47478734 14.12902566 -40.53515625 9.9375 C-30.44909854 0.06502939 -13.1404427 0.1391996 0 0 Z " fill="#38B6FD" transform="translate(273.875,135.6875)"/>
<path d="M0 0 C1.40378906 -0.04350586 1.40378906 -0.04350586 2.8359375 -0.08789062 C3.733125 -0.09626953 4.6303125 -0.10464844 5.5546875 -0.11328125 C6.36147949 -0.12786377 7.16827148 -0.14244629 7.99951172 -0.1574707 C10.125 0.3125 10.125 0.3125 11.88720703 2.14770508 C13.55599493 5.06627358 13.54741802 7.00355887 13.125 10.3125 C11.57993534 12.34917615 10.40353844 13.17323078 8.125 14.3125 C6.27342724 14.49946842 4.41643791 14.63404893 2.55859375 14.7421875 C1.43259766 14.81566406 0.30660156 14.88914063 -0.85351562 14.96484375 C-3.21512429 15.11155949 -5.57711093 15.25233007 -7.93945312 15.38671875 C-19.45590445 16.158406 -28.38489744 18.33472099 -36.5 27 C-42.36486179 33.95479186 -44.89560975 41.55904099 -45.10864258 50.59008789 C-45.13569778 51.61787857 -45.16275299 52.64566925 -45.19062805 53.7046051 C-45.21666611 54.80368698 -45.24270416 55.90276886 -45.26953125 57.03515625 C-45.33827987 59.37046976 -45.40796987 61.70575571 -45.47851562 64.04101562 C-45.58608281 67.71676099 -45.68790321 71.39228073 -45.77368164 75.06860352 C-45.85892814 78.6206993 -45.96843071 82.17136916 -46.08203125 85.72265625 C-46.10199661 86.82376236 -46.12196198 87.92486847 -46.14253235 89.05934143 C-46.19729988 90.59629921 -46.19729988 90.59629921 -46.25317383 92.16430664 C-46.27680496 93.06411758 -46.3004361 93.96392853 -46.32478333 94.89100647 C-47.04756304 98.0719468 -48.35048539 99.30395714 -50.875 101.3125 C-53.875 101.8125 -53.875 101.8125 -56.875 101.3125 C-59.46477867 99.27543762 -60.72658217 98.09938433 -61.3449707 94.82080078 C-61.33038818 93.89251465 -61.31580566 92.96422852 -61.30078125 92.0078125 C-61.29320801 90.96012695 -61.28563477 89.91244141 -61.27783203 88.83300781 C-61.23311768 87.15223145 -61.23311768 87.15223145 -61.1875 85.4375 C-61.17058105 84.28088867 -61.15366211 83.12427734 -61.13623047 81.93261719 C-61.07464072 78.39144919 -60.98017675 74.85261978 -60.875 71.3125 C-60.84744629 70.27383789 -60.81989258 69.23517578 -60.79150391 68.16503906 C-60.61246731 61.87081599 -60.30984375 55.59415844 -59.875 49.3125 C-59.78734375 47.99765625 -59.6996875 46.6828125 -59.609375 45.328125 C-58.67659973 36.20314952 -55.34221137 29.17192536 -50.875 21.3125 C-56.84268044 22.20627703 -60.8970398 27.11493632 -64.875 31.3125 C-80.16351348 52.43560944 -75.20353081 84.6709433 -75.13335419 109.4852066 C-75.12490223 112.53528221 -75.11903358 115.58535468 -75.11358643 118.63543701 C-74.98542768 182.07937284 -72.22572268 245.07836279 -65.27734375 308.16015625 C-64.02947369 319.51368897 -63.05390789 330.84888106 -62.375 342.25 C-62.31496796 343.22119781 -62.25493591 344.19239563 -62.19308472 345.19302368 C-60.76797077 368.53922337 -60.1071385 391.91380492 -59.34679031 415.28862 C-58.57099961 439.06130311 -57.64268805 462.7813896 -55.8125 486.5 C-55.7304129 487.56850189 -55.64832581 488.63700378 -55.56375122 489.73788452 C-53.97950566 513.47411694 -53.97950566 513.47411694 -50 536.875 C-49.82710449 537.62112549 -49.65420898 538.36725098 -49.47607422 539.13598633 C-48.18358994 544.49048035 -46.74613133 549.56487927 -43.875 554.3125 C-43.5140625 554.91964844 -43.153125 555.52679687 -42.78125 556.15234375 C-32.38790014 570.63332207 -7.96680848 572.88250001 8.125 576.3125 C8.125 576.6425 8.125 576.9725 8.125 577.3125 C-15.54463677 578.59579356 -46.78861689 575.14094762 -65.25 558.75 C-78.85311964 544.03415074 -78.10086211 516.49970121 -79.67288208 497.72439575 C-79.81252587 496.05801074 -79.95554232 494.39190614 -80.10128784 492.7260437 C-82.52678392 464.51382431 -83.09038663 436.17445732 -84.04956055 407.88452148 C-84.87179713 383.73290763 -85.77331284 359.60192946 -87.38671875 335.48828125 C-87.44698683 334.57811312 -87.50725491 333.66794498 -87.56934929 332.730196 C-88.34983089 321.09637017 -89.4150895 309.52040624 -90.75 297.9375 C-90.93549068 296.29544056 -91.12077135 294.65335735 -91.30566406 293.01123047 C-91.38194031 292.33883331 -91.45821655 291.66643616 -91.5368042 290.97366333 C-97.96307425 233.5700505 -100.01543607 175.9979706 -100.11953354 118.27194595 C-100.12490608 115.60905303 -100.13302091 112.94617927 -100.14151001 110.28329468 C-100.18671139 93.5484818 -100.12448392 76.8215021 -99.171875 60.109375 C-99.11952698 58.97743713 -99.06717896 57.84549927 -99.01324463 56.67926025 C-98.15116291 44.09001332 -93.27580971 33.20450404 -84 24.56640625 C-74.85252175 17.17096516 -65.25559722 15.6828034 -53.82226562 15.35546875 C-46.82311335 14.95551719 -43.77053203 13.16851941 -38.875 8.3125 C-27.05564054 0.86666499 -13.61980697 0.14427762 0 0 Z " fill="#0197B2" transform="translate(273.875,135.6875)"/>
<path d="M0 0 C3.4375 0.5 3.4375 0.5 5.3125 1.8125 C7.83237903 5.59231855 7.76404203 9.74689469 8.05078125 14.12890625 C8.16292992 15.7209755 8.27549738 17.3130153 8.38842773 18.9050293 C8.44698944 19.74544769 8.50555115 20.58586609 8.56588745 21.45175171 C10.20582189 44.70631018 12.0223082 68.14178086 16.4375 91.0625 C16.57921631 91.81104248 16.72093262 92.55958496 16.86694336 93.33081055 C19.85812262 107.49998572 27.52070397 118.38187417 39.4375 126.5 C47.46166455 131.14122628 55.75350385 133.59423735 64.7109375 135.640625 C68.33605127 136.47660511 71.87045967 137.44924393 75.4375 138.5 C74.84875946 126.45510405 74.84875946 126.45510405 73.875 114.4375 C72.50752971 99.59708469 73.9202482 83.12486795 83.75 71.25 C90.97332449 63.53591886 98.5761098 59.51557955 109.25 59 C117.97299692 59.24477797 126.57653976 62.63635772 132.9140625 68.7265625 C144.05070413 81.69075558 144.4430261 99.57159543 146.625 115.8125 C146.89984436 117.82494447 147.17523088 119.83731498 147.45117188 121.84960938 C148.11953037 126.73224325 148.78055942 131.61581734 149.4375 136.5 C150.4275 136.17 151.4175 135.84 152.4375 135.5 C169.98546677 133.33571454 187.76085573 132.21297052 205.4375 132.125 C206.6740332 132.11138428 207.91056641 132.09776855 209.18457031 132.08374023 C220.27793252 132.13919185 230.44139431 133.67069826 239.4375 140.5 C240.6440625 141.39525391 240.6440625 141.39525391 241.875 142.30859375 C249.30472683 148.66236929 254.6040026 157.18993712 257.4375 166.5 C257.72367188 167.39332031 257.72367188 167.39332031 258.015625 168.3046875 C260.34759273 180.4395566 258.26549601 192.63165451 252.00390625 203.2109375 C243.13048039 216.17808851 232.73096613 223.22407999 217.4375 226.5 C216.46683594 226.71011719 215.49617187 226.92023438 214.49609375 227.13671875 C210.02535793 227.86296347 208.18120052 227.96663562 204.25 225.5 C202.4375 222.5 202.4375 222.5 202.375 218.875 C203.57206651 215.07255344 204.09447048 214.45241824 207.4375 212.5 C210.5390625 211.76171875 210.5390625 211.76171875 214.0625 211.1875 C224.50075384 209.0846742 232.4248459 204.4153147 238.4375 195.5 C243.09461449 187.44333012 243.82435355 178.84646229 241.84765625 169.80078125 C239.22592557 162.10473314 233.97984004 155.35971242 227.0859375 151.01953125 C216.83816455 146.39635029 204.60822925 147.30671985 193.625 147.75 C192.43865967 147.79447266 191.25231934 147.83894531 190.0300293 147.88476562 C177.85463256 148.41017431 165.75926339 149.60077557 153.63671875 150.80078125 C142.23561562 151.92632569 130.89651912 152.56760362 119.4375 152.625 C118.65197754 152.62975342 117.86645508 152.63450684 117.05712891 152.6394043 C111.56029942 152.62279942 111.56029942 152.62279942 110.4375 151.5 C107.51027251 151.59335808 104.60848587 151.74417697 101.6875 151.9375 C93.91945483 152.40556043 86.22141512 152.62577242 78.4375 152.5 C78.4375 151.18 78.4375 149.86 78.4375 148.5 C77.7775 148.5 77.1175 148.5 76.4375 148.5 C76.1075 149.49 75.7775 150.48 75.4375 151.5 C53.67475042 152.82117873 35.355913 144.03496909 19.01953125 130.49609375 C-1.96374394 111.05510958 -2.49688309 75.21344368 -5.00048828 48.72387695 C-5.31544669 45.40646291 -5.64717974 42.09100812 -5.98046875 38.77539062 C-6.86501278 29.78924258 -7.75108856 20.78589242 -7.953125 11.75390625 C-7.97922852 10.64474854 -8.00533203 9.53559082 -8.03222656 8.39282227 C-7.20173073 3.2781938 -5.12931229 0.71990348 0 0 Z " fill="#FC0301" transform="translate(358.5625,231.5)"/>
<path d="M0 0 C8.016264 7.22751514 13.51409854 14.11062785 14.35546875 25.12109375 C14.55193404 29.24602696 14.43154594 33.29722314 14.11914062 37.41357422 C14.00855791 38.90240268 13.93299518 40.39455332 13.90429688 41.88720703 C13.76959045 45.81967237 13.18972679 49.27372281 10.6953125 52.41943359 C3.20524661 58.13102681 -8.99357611 58.26251115 -18.0725708 59.48358154 C-22.46732687 60.08294643 -26.85072579 60.76203362 -31.2355957 61.42919922 C-33.49292632 61.76491054 -35.75327027 62.08107334 -38.01635742 62.37548828 C-39.03189697 62.5145459 -40.04743652 62.65360352 -41.09375 62.796875 C-41.98271973 62.9105542 -42.87168945 63.0242334 -43.78759766 63.14135742 C-46.38492486 63.84313364 -47.43551941 64.62876881 -49.0546875 66.75390625 C-49.20255767 68.82451113 -49.20255767 68.82451113 -48.7421875 70.94140625 C-48.5153125 72.19953125 -48.2884375 73.45765625 -48.0546875 74.75390625 C-52.95243457 76.2793368 -57.54084399 77.16086823 -62.66796875 77.68359375 C-64.09448264 77.84040526 -65.52091291 77.99797909 -66.94726562 78.15625 C-69.16962968 78.39673246 -71.3921274 78.63139131 -73.61645508 78.85302734 C-75.7816126 79.07165348 -77.94319664 79.31326821 -80.10546875 79.55859375 C-81.39106689 79.69249512 -82.67666504 79.82639648 -84.0012207 79.96435547 C-87.1627538 80.42676275 -87.1627538 80.42676275 -88.48901367 82.82861328 C-88.67568604 83.46395996 -88.8623584 84.09930664 -89.0546875 84.75390625 C-89.23644531 83.45839844 -89.41820312 82.16289063 -89.60546875 80.828125 C-90.92226796 71.49621889 -92.28209774 62.1757683 -93.78393555 52.87182617 C-94.67545682 47.29079997 -95.50724985 41.70225716 -96.3203125 36.109375 C-96.43182648 35.34361649 -96.54334045 34.57785797 -96.65823364 33.78889465 C-97.22301388 29.90707515 -97.78434007 26.02479356 -98.34130859 22.1418457 C-98.55036118 20.70001884 -98.75950436 19.25820511 -98.96875 17.81640625 C-99.1538916 16.52863281 -99.3390332 15.24085938 -99.52978516 13.9140625 C-99.97220997 10.74049368 -99.97220997 10.74049368 -101.0546875 7.75390625 C-101.18250536 5.07995661 -101.09860621 2.43294768 -101.0546875 -0.24609375 C-94.18111604 -1.85446896 -87.72094648 -2.47050872 -80.6796875 -2.55859375 C-68.28546884 -2.86907317 -56.18509424 -4.5987376 -43.95751953 -6.51879883 C-28.11430758 -8.95580534 -13.28283823 -10.72844626 0 0 Z " fill="#FEDD58" transform="translate(646.0546875,615.24609375)"/>
<path d="M0 0 C0.33 1.32 0.66 2.64 1 4 C8.59 4 16.18 4 24 4 C24.69927597 12.43333285 25.18649417 20.81911238 25.39453125 29.27734375 C25.46078889 31.64593722 25.52788228 34.01450742 25.59570312 36.38305664 C25.63058838 37.61444366 25.66547363 38.84583069 25.70141602 40.11453247 C26.33656533 61.97326593 27.34318698 83.75372083 29 105.5625 C29.12551743 107.22948441 29.12551743 107.22948441 29.25357056 108.93014526 C30.81191066 133.41693539 30.81191066 133.41693539 34.875 157.5625 C35.13434326 158.68168823 35.13434326 158.68168823 35.39892578 159.82348633 C36.69141006 165.17798035 38.12886867 170.25237927 41 175 C41.54140625 175.91072266 41.54140625 175.91072266 42.09375 176.83984375 C52.48709986 191.32082207 76.90819152 193.57000001 93 197 C93 197.33 93 197.66 93 198 C69.33036323 199.28329356 38.08638311 195.82844762 19.625 179.4375 C5.56438068 164.22672778 6.60279887 135.40401002 5 116 C4.92366333 115.08399017 4.84732666 114.16798035 4.76867676 113.22421265 C3.05090329 92.16573224 2.23219585 71.09042898 1.47198486 49.98059082 C1.34122741 46.38340316 1.20558033 42.78640667 1.06982994 39.18940449 C0.93795619 35.68832261 0.80797376 32.18717272 0.67866898 28.6859951 C0.61759442 27.0327249 0.55619866 25.37946652 0.49445724 23.72622108 C0.2007712 15.81584978 -0.08461853 7.91747396 0 0 Z " fill="#0197B2" transform="translate(189,515)"/>
<path d="M0 0 C12.29776261 7.17244964 20.05565692 17.41970797 24.03125 31.04296875 C26.66187996 44.14419821 24.63930903 57.18025208 17.484375 68.54296875 C9.3893836 79.42745043 -1.39977693 86.73814925 -14.875 88.9375 C-18.9302183 89.43343521 -22.98618533 89.73470148 -27.0625 90 C-28.31063477 90.08233887 -29.55876953 90.16467773 -30.84472656 90.24951172 C-44.59044225 91.08853031 -58.35844665 91.31364038 -72.125 91.5625 C-73.8173024 91.59333176 -73.8173024 91.59333176 -75.54379272 91.62478638 C-82.18585001 91.74140886 -88.82772039 91.83067032 -95.47045898 91.89758301 C-99.05679757 91.93963151 -102.64248073 92.00289219 -106.22851562 92.06542969 C-108.60545783 92.09402192 -110.98241099 92.12172006 -113.359375 92.1484375 C-114.47096985 92.17217438 -115.5825647 92.19591125 -116.72784424 92.22036743 C-117.75319275 92.22805145 -118.77854126 92.23573547 -119.83496094 92.24365234 C-120.73825134 92.25697601 -121.64154175 92.27029968 -122.57220459 92.2840271 C-124.875 91.9375 -124.875 91.9375 -126.66265869 90.63320923 C-128.71601653 87.76116502 -128.29230773 85.33557721 -127.875 81.9375 C-125.65147262 78.87248635 -124.42651162 78.03070785 -120.65917969 77.39401245 C-119.38461914 77.37339752 -118.11005859 77.35278259 -116.796875 77.33154297 C-116.09024216 77.31466431 -115.38360931 77.29778564 -114.65556335 77.28039551 C-112.31201369 77.22873978 -109.96897483 77.20448434 -107.625 77.1796875 C-105.97139705 77.14726245 -104.31783117 77.11289484 -102.66430664 77.07669067 C-98.28910104 76.98516924 -93.91383889 76.91578743 -89.53814697 76.85229492 C-81.79583693 76.73660299 -74.05409969 76.5851283 -66.3125 76.4296875 C-65.47674438 76.41323936 -64.64098877 76.39679123 -63.77990723 76.37984467 C-52.79203409 76.157014 -41.84000853 75.76882258 -30.875 75.0078125 C-29.7605249 74.93263397 -28.6460498 74.85745544 -27.49780273 74.77999878 C-16.12770003 73.90452932 -5.97849007 71.60933126 2.0546875 62.828125 C7.02276933 55.85798035 10.0473324 47.5459357 9.125 38.9375 C7.09678227 28.83021498 2.55095121 21.15735455 -5.84765625 15.12890625 C-14.64263173 9.96037538 -25.45365529 10.04129158 -35.390625 9.5078125 C-36.05763931 9.47057068 -36.72465363 9.43332886 -37.41188049 9.3949585 C-40.81242962 9.20555194 -44.21193257 9.03573219 -47.61499023 8.8984375 C-48.88028564 8.83140625 -50.14558105 8.764375 -51.44921875 8.6953125 C-52.58963623 8.6452002 -53.73005371 8.59508789 -54.9050293 8.54345703 C-58.4695307 7.81619912 -59.71492014 6.82777055 -61.875 3.9375 C-62.60634328 -2.01772388 -62.60634328 -2.01772388 -60.5625 -4.9375 C-48.2847668 -13.12265547 -12.80979013 -5.89194893 0 0 Z " fill="#040702" transform="translate(643.875,135.0625)"/>
<path d="M0 0 C9.58096451 8.30826923 15.65770438 16.25520531 17.4296875 28.95703125 C18.38628588 43.82109842 16.39974724 57.17026672 6.8359375 68.9140625 C-6.81958866 83.69681369 -27.98103041 85.18832549 -46.7578125 88.26953125 C-47.98487411 88.47231689 -47.98487411 88.47231689 -49.23672485 88.67919922 C-51.61099116 89.06795614 -53.98666517 89.44621465 -56.36328125 89.8203125 C-57.07108734 89.93566849 -57.77889343 90.05102448 -58.50814819 90.1698761 C-70.61926648 92.02695971 -70.61926648 92.02695971 -74.5078125 89.89453125 C-76.17124875 86.86120632 -76.50988755 84.40125338 -76.5703125 80.95703125 C-74.32301646 77.78472104 -72.79015078 77.0150847 -69.00537109 76.015625 C-67.57897809 75.79214125 -66.14977136 75.58615549 -64.71875 75.39453125 C-63.94584625 75.27650146 -63.1729425 75.15847168 -62.37661743 75.03686523 C-59.90154677 74.66132827 -57.42398259 74.30795061 -54.9453125 73.95703125 C-45.15022661 72.52735044 -35.39660981 71.04370821 -25.71875 68.9453125 C-24.98337006 68.78977905 -24.24799011 68.63424561 -23.49032593 68.47399902 C-15.13593661 66.595071 -8.02087306 62.77362574 -2.75390625 55.91015625 C2.54902815 47.15943941 2.96389762 35.824448 0.7734375 26.01953125 C-2.35862325 17.16335948 -8.37310655 12.2386586 -16.45703125 7.90234375 C-29.54201458 2.04917191 -48.79570805 5.98273026 -62.5703125 7.95703125 C-67.58897456 8.66085466 -72.60961923 9.34885082 -77.6328125 10.01953125 C-78.63495789 10.15381027 -78.63495789 10.15381027 -79.65734863 10.290802 C-90.54161111 11.73267949 -101.35699125 12.51930109 -112.3359375 12.78125 C-117.77350695 12.91626168 -123.16117638 13.40296591 -128.5703125 13.95703125 C-128.5703125 12.63703125 -128.5703125 11.31703125 -128.5703125 9.95703125 C-119.6603125 8.96703125 -119.6603125 8.96703125 -110.5703125 7.95703125 C-110.2403125 5.64703125 -109.9103125 3.33703125 -109.5703125 0.95703125 C-106.74012655 -2.15810226 -103.83172107 -2.58176826 -99.75805664 -3.11791992 C-97.99825218 -3.35782906 -97.99825218 -3.35782906 -96.20289612 -3.60258484 C-94.29841957 -3.84184441 -94.29841957 -3.84184441 -92.35546875 -4.0859375 C-91.02134981 -4.26033389 -89.68732099 -4.4354209 -88.3533783 -4.61116028 C-85.54750574 -4.9778915 -82.7406679 -5.3356487 -79.93286133 -5.68725586 C-76.39850878 -6.13061475 -72.86759706 -6.59659739 -69.33704185 -7.06911755 C-17.56632851 -13.96229454 -17.56632851 -13.96229454 0 0 Z " fill="#060A04" transform="translate(672.5703125,601.04296875)"/>
<path d="M0 0 C1.20398438 -0.0098291 2.40796875 -0.0196582 3.6484375 -0.02978516 C14.54709242 0.07764444 24.6111604 1.73707445 33.4375 8.4375 C34.6440625 9.33275391 34.6440625 9.33275391 35.875 10.24609375 C43.30472683 16.59986929 48.6040026 25.12743712 51.4375 34.4375 C51.62828125 35.03304687 51.8190625 35.62859375 52.015625 36.2421875 C54.34759273 48.3770566 52.26549601 60.56915451 46.00390625 71.1484375 C37.13048039 84.11558851 26.73096613 91.16157999 11.4375 94.4375 C9.98150391 94.75267578 9.98150391 94.75267578 8.49609375 95.07421875 C4.02535793 95.80046347 2.18120052 95.90413562 -1.75 93.4375 C-3.5625 90.4375 -3.5625 90.4375 -3.625 86.8125 C-2.42793349 83.01005344 -1.90552952 82.38991824 1.4375 80.4375 C4.5390625 79.69921875 4.5390625 79.69921875 8.0625 79.125 C18.50075384 77.0221742 26.4248459 72.3528147 32.4375 63.4375 C37.09461449 55.38083012 37.82435355 46.78396229 35.84765625 37.73828125 C33.22592557 30.04223314 27.97984004 23.29721242 21.0859375 18.95703125 C10.83816455 14.33385029 -1.39177075 15.24421985 -12.375 15.6875 C-14.1545105 15.75420898 -14.1545105 15.75420898 -15.9699707 15.82226562 C-28.14536744 16.34767431 -40.24073661 17.53827557 -52.36328125 18.73828125 C-60.42857972 19.534507 -68.46121391 20.16581053 -76.5625 20.4375 C-77.34882813 20.46473145 -78.13515625 20.49196289 -78.9453125 20.52001953 C-81.4427442 20.59685615 -83.93923354 20.64706133 -86.4375 20.6875 C-87.20626465 20.70901123 -87.9750293 20.73052246 -88.76708984 20.75268555 C-94.0769554 20.78445602 -94.0769554 20.78445602 -96.51953125 19.0390625 C-97.80191263 17.06986262 -98.35463499 15.79330344 -98.5625 13.4375 C-97.48220563 9.6564697 -96.91943737 8.67545825 -93.5625 6.4375 C-91.09033203 6.09033203 -91.09033203 6.09033203 -88.0703125 5.9453125 C-86.33491211 5.85032471 -86.33491211 5.85032471 -84.56445312 5.75341797 C-83.28505859 5.69041504 -82.00566406 5.62741211 -80.6875 5.5625 C-70.96677726 5.0369679 -61.27625221 4.35925896 -51.5859375 3.421875 C-50.64524918 3.33103134 -49.70456085 3.24018768 -48.73536682 3.14659119 C-47.31235512 3.00913231 -47.31235512 3.00913231 -45.8605957 2.86889648 C-30.57746212 1.39476103 -15.36265884 0.05486664 0 0 Z " fill="#050602" transform="translate(564.5625,363.5625)"/>
<path d="M0 0 C3.4375 0.5 3.4375 0.5 5.3125 1.8125 C7.83237903 5.59231855 7.76404203 9.74689469 8.05078125 14.12890625 C8.16292992 15.7209755 8.27549738 17.3130153 8.38842773 18.9050293 C8.44698944 19.74544769 8.50555115 20.58586609 8.56588745 21.45175171 C10.20582189 44.70631018 12.0223082 68.14178086 16.4375 91.0625 C16.57921631 91.81104248 16.72093262 92.55958496 16.86694336 93.33081055 C19.85812262 107.49998572 27.52070397 118.38187417 39.4375 126.5 C47.46166455 131.14122628 55.75350385 133.59423735 64.7109375 135.640625 C75.13361891 138.04417836 75.13361891 138.04417836 77.4375 141.5 C77.8891129 147.82258065 77.8891129 147.82258065 75.4375 151.5 C60.30574646 154.11216896 42.42460433 147.42121455 30.02392578 138.98730469 C11.37899087 125.79059723 3.78105135 109.60532223 -0.04840088 87.47947693 C-2.18936718 74.59777263 -3.7718762 61.72329155 -5.00048828 48.72387695 C-5.31544669 45.40646291 -5.64717974 42.09100812 -5.98046875 38.77539062 C-6.86501278 29.78924258 -7.75108856 20.78589242 -7.953125 11.75390625 C-7.97922852 10.64474854 -8.00533203 9.53559082 -8.03222656 8.39282227 C-7.20173073 3.2781938 -5.12931229 0.71990348 0 0 Z " fill="#040803" transform="translate(358.5625,231.5)"/>
<path d="M0 0 C3.42854438 1.14284813 4.72874623 2.22257243 7 5 C7.52330017 7.4108429 7.52330017 7.4108429 7.55834961 10.14575195 C7.58215698 11.18575851 7.60596436 12.22576508 7.63049316 13.29728699 C7.63770386 14.43281509 7.64491455 15.5683432 7.65234375 16.73828125 C7.70420168 19.22542618 7.75621078 21.71256797 7.80834961 24.19970703 C7.82974361 25.53353743 7.85039106 26.86737998 7.87033081 28.20123291 C7.97913025 35.22283341 8.17189047 42.24229864 8.375 49.26171875 C8.3956848 49.98738541 8.41636959 50.71305206 8.4376812 51.46070862 C8.89982711 67.22375845 9.97862632 82.92014436 11.27357864 98.63448715 C11.4344956 100.58851733 11.59298807 102.54274669 11.75143433 104.49697876 C12.94941742 119.16431156 14.37098898 133.79685602 15.97528076 148.42510986 C16.88200214 156.73500779 17.6416924 165.03265637 18.1875 173.375 C18.26935547 174.53386719 18.35121094 175.69273437 18.43554688 176.88671875 C19.42963931 191.37206563 19.42963931 191.37206563 17.375 194.375 C14.28813568 196.48706506 12.6717087 196.61195145 9 196 C6.60575258 194.36715847 5.24166492 193.01611544 4.55859375 190.14404297 C4.27987055 187.65820805 4.12711698 185.18577818 4 182.6875 C3.85688754 180.60258454 3.70941593 178.51796567 3.55859375 176.43359375 C3.47593262 175.26296387 3.39327148 174.09233398 3.30810547 172.88623047 C2.77507039 166.16289255 2.03999388 159.46087749 1.32736206 152.75460815 C-0.70627098 133.52401736 -2.55531851 114.28422463 -4 95 C-4.0678772 94.09445374 -4.13575439 93.18890747 -4.20568848 92.25592041 C-5.93726395 68.9153337 -7.28043689 45.59658716 -7.4375 22.1875 C-7.44953461 21.28369598 -7.46156921 20.37989197 -7.47396851 19.44869995 C-7.50322391 16.91710345 -7.50464706 14.38718558 -7.49609375 11.85546875 C-7.50719177 11.11306946 -7.51828979 10.37067017 -7.52972412 9.60577393 C-7.48332573 6.17118069 -7.22426474 4.30302915 -5.15649414 1.5090332 C-3 0 -3 0 0 0 Z " fill="#050401" transform="translate(221,280)"/>
<path d="M0 0 C1.40378906 -0.04350586 1.40378906 -0.04350586 2.8359375 -0.08789062 C3.733125 -0.09626953 4.6303125 -0.10464844 5.5546875 -0.11328125 C6.36147949 -0.12786377 7.16827148 -0.14244629 7.99951172 -0.1574707 C10.125 0.3125 10.125 0.3125 11.88720703 2.14770508 C13.55599493 5.06627358 13.54741802 7.00355887 13.125 10.3125 C11.57993534 12.34917615 10.40353844 13.17323078 8.125 14.3125 C6.27342724 14.49946842 4.41643791 14.63404893 2.55859375 14.7421875 C1.43259766 14.81566406 0.30660156 14.88914063 -0.85351562 14.96484375 C-3.21512429 15.11155949 -5.57711093 15.25233007 -7.93945312 15.38671875 C-19.45590445 16.158406 -28.38489744 18.33472099 -36.5 27 C-42.36486179 33.95479186 -44.89560975 41.55904099 -45.10864258 50.59008789 C-45.13569778 51.61787857 -45.16275299 52.64566925 -45.19062805 53.7046051 C-45.21666611 54.80368698 -45.24270416 55.90276886 -45.26953125 57.03515625 C-45.33827987 59.37046976 -45.40796987 61.70575571 -45.47851562 64.04101562 C-45.58608281 67.71676099 -45.68790321 71.39228073 -45.77368164 75.06860352 C-45.85892814 78.6206993 -45.96843071 82.17136916 -46.08203125 85.72265625 C-46.10199661 86.82376236 -46.12196198 87.92486847 -46.14253235 89.05934143 C-46.17904404 90.08397995 -46.21555573 91.10861847 -46.25317383 92.16430664 C-46.27680496 93.06411758 -46.3004361 93.96392853 -46.32478333 94.89100647 C-47.04756304 98.0719468 -48.35048539 99.30395714 -50.875 101.3125 C-53.875 101.8125 -53.875 101.8125 -56.875 101.3125 C-59.46477867 99.27543762 -60.72658217 98.09938433 -61.3449707 94.82080078 C-61.33038818 93.89251465 -61.31580566 92.96422852 -61.30078125 92.0078125 C-61.28942139 90.43628418 -61.28942139 90.43628418 -61.27783203 88.83300781 C-61.24802246 87.71249023 -61.21821289 86.59197266 -61.1875 85.4375 C-61.17058105 84.28088867 -61.15366211 83.12427734 -61.13623047 81.93261719 C-61.07464072 78.39144919 -60.98017675 74.85261978 -60.875 71.3125 C-60.84744629 70.27383789 -60.81989258 69.23517578 -60.79150391 68.16503906 C-60.61246731 61.87081599 -60.30984375 55.59415844 -59.875 49.3125 C-59.78734375 47.99765625 -59.6996875 46.6828125 -59.609375 45.328125 C-58.19844152 31.52551485 -51.16413028 18.06660616 -40.34375 9.25 C-28.30007299 0.94401585 -14.20594296 0.15048668 0 0 Z " fill="#050602" transform="translate(273.875,135.6875)"/>
<path d="M0 0 C3.43256873 0.93615511 4.37320959 1.21964319 6.4375 3.9375 C7.00585938 6.29077148 7.00585938 6.29077148 7.28125 9.05859375 C7.39138428 10.07107178 7.50151855 11.0835498 7.61499023 12.12670898 C7.72141846 13.19864502 7.82784668 14.27058105 7.9375 15.375 C9.31911994 27.82989359 9.31911994 27.82989359 12.4375 39.9375 C12.71207031 40.76121094 12.98664063 41.58492187 13.26953125 42.43359375 C16.03133953 49.59079053 19.75904283 53.20698336 26.67578125 56.4609375 C43.56327427 63.51356869 61.31351392 66.45730287 79.51489258 67.12988281 C87.70557266 67.51509856 87.70557266 67.51509856 91.6796875 69.80859375 C93.4375 71.9375 93.4375 71.9375 94 74.9375 C93.27999151 78.77754529 92.64359361 79.68560092 89.4375 81.9375 C85.91303342 82.55697804 82.44499769 82.50405238 78.875 82.4375 C77.84793945 82.42614014 76.82087891 82.41478027 75.76269531 82.40307617 C66.79261279 82.1790322 58.42503699 80.78377556 49.76123047 78.53173828 C47.38185243 77.92326947 44.99389528 77.37773572 42.59765625 76.83984375 C28.34050665 73.52572573 11.94542336 68.38602668 3.03125 55.98046875 C-5.27786858 41.51550927 -8.18681577 20.3951573 -7.5625 3.9375 C-5.3173484 0.25545138 -4.33137369 -0.07598901 0 0 Z " fill="#040401" transform="translate(242.5625,631.0625)"/>
<path d="M0 0 C3.52645236 1.02854861 4.12814298 1.80888278 6 4.875 C6.55249023 7.08227539 6.55249023 7.08227539 6.80859375 9.47265625 C6.91333008 10.35131348 7.01806641 11.2299707 7.12597656 12.13525391 C7.2287793 13.05999512 7.33158203 13.98473633 7.4375 14.9375 C9.53125994 31.18761838 14.97570958 45.15881168 28 55.875 C40.35833112 64.62120806 52.07188618 66.87461829 66.9375 67.4375 C68.00291016 67.48068359 69.06832031 67.52386719 70.16601562 67.56835938 C72.77721769 67.67374421 75.38859356 67.77480726 78 67.875 C78.495 75.3 78.495 75.3 79 82.875 C63.49 82.875 47.98 82.875 32 82.875 C32 82.545 32 82.215 32 81.875 C35.63 81.545 39.26 81.215 43 80.875 C42.24976563 80.58367187 41.49953125 80.29234375 40.7265625 79.9921875 C21.22822448 72.18302945 6.67367736 59.90561226 -2.4609375 40.71875 C-6.69101718 30.71188665 -9.85158925 17.71340863 -9 6.875 C-6.93859668 2.56759008 -5.13028895 -0.21376204 0 0 Z " fill="#070E07" transform="translate(389,539.125)"/>
<path d="M0 0 C0.33820166 1.5823006 0.67035939 3.16589375 1 4.75 C1.185625 5.63171875 1.37125 6.5134375 1.5625 7.421875 C2 10 2 10 2 14 C1.07207893 14.04638359 1.07207893 14.04638359 0.12541199 14.09370422 C-7.85422111 14.49359835 -15.83344871 14.90116756 -23.8125 15.3125 C-25.74187912 15.41179306 -25.74187912 15.41179306 -27.7102356 15.51309204 C-46.49671408 16.4861004 -65.26254366 17.61307278 -84.0168457 19.08520508 C-92.00894803 19.69932175 -99.98757785 20.15556936 -108.00390625 20.26953125 C-108.76404526 20.28972824 -109.52418427 20.30992523 -110.30735779 20.33073425 C-115.46825354 20.35100927 -115.46825354 20.35100927 -117.97241211 18.69799805 C-119.7505881 15.7597196 -119.40844099 13.32587665 -119 10 C-116.95859693 7.36186258 -115.69472079 6.16713087 -112.42524719 5.38058472 C-110.96238533 5.29636765 -110.96238533 5.29636765 -109.4699707 5.21044922 C-107.79660393 5.10037033 -107.79660393 5.10037033 -106.08943176 4.98806763 C-104.88042709 4.92755219 -103.67142242 4.86703674 -102.42578125 4.8046875 C-101.1658989 4.72685028 -99.90601654 4.64901306 -98.60795593 4.56881714 C-95.21141538 4.36242599 -91.81473663 4.1723874 -88.41687012 3.99009705 C-84.90931178 3.79825361 -81.40297657 3.58626722 -77.89648438 3.37597656 C-72.39588612 3.04819831 -66.89476903 2.73150216 -61.39306641 2.42285156 C-55.37807387 2.08318544 -49.36628293 1.71117601 -43.35546875 1.3046875 C-28.88294059 0.33455661 -14.50645292 -0.29706047 0 0 Z " fill="#040403" transform="translate(479,691)"/>
<path d="M0 0 C3.38614933 -0.11232409 6.77114514 -0.19220538 10.15844727 -0.25921631 C11.11237366 -0.29617111 12.06630005 -0.33312592 13.0491333 -0.37120056 C17.55509616 -0.41912574 19.43263318 -0.32014354 23.15942383 2.43341064 C25.04907227 5.13531494 25.04907227 5.13531494 25.17407227 8.76031494 C24.04907227 12.13531494 24.04907227 12.13531494 22.00512695 13.81646729 C18.19665158 15.51562354 14.72274666 15.59466388 10.62719727 15.61187744 C9.8089447 15.62745697 8.99069214 15.6430365 8.14764404 15.65908813 C5.53146481 15.70644106 2.91554203 15.73422272 0.29907227 15.76031494 C-3.11248552 15.80939281 -6.52388701 15.8663387 -9.93530273 15.92437744 C-11.20994133 15.94396263 -11.20994133 15.94396263 -12.5103302 15.96394348 C-17.79405974 16.05651399 -23.04978439 16.28604737 -28.32202148 16.63922119 C-37.67204174 17.25249783 -47.01683896 17.3911617 -56.38525391 17.43048096 C-58.32738425 17.44217756 -60.26947837 17.46289529 -62.21142578 17.49200439 C-65.05840232 17.53442584 -67.90445703 17.55079064 -70.75170898 17.56109619 C-71.61830643 17.57860428 -72.48490387 17.59611237 -73.37776184 17.614151 C-79.29812536 17.59265416 -79.29812536 17.59265416 -82.52587891 15.33135986 C-83.95092773 13.13531494 -83.95092773 13.13531494 -83.95092773 9.57281494 C-82.82415254 5.69952519 -82.37555262 5.04606602 -78.95092773 3.13531494 C-75.78411865 2.66065979 -75.78411865 2.66065979 -71.99291992 2.51934814 C-71.29936905 2.48964935 -70.60581818 2.45995056 -69.89125061 2.42935181 C-67.5937449 2.33453401 -65.29606589 2.26009594 -62.99780273 2.18609619 C-61.3794536 2.12422916 -59.76114715 2.06123623 -58.1428833 1.99717712 C-54.73686725 1.8652389 -51.33069052 1.7425896 -47.92407227 1.6272583 C-43.63177305 1.48184829 -39.34027379 1.32064266 -35.04877472 1.15342903 C-25.39310624 0.77773523 -15.73680671 0.46620694 -6.0776062 0.1975174 C-4.05153434 0.13825755 -2.02575057 0.06937974 0 0 Z " fill="#040703" transform="translate(523.950927734375,127.86468505859375)"/>
<path d="M0 0 C6.27066458 -0.1047922 12.54085097 -0.18532287 18.81222534 -0.23214722 C20.80991607 -0.24972555 22.80755892 -0.27406339 24.80508423 -0.3052063 C27.59936391 -0.34674987 30.3926468 -0.36266776 33.18719482 -0.37182617 C34.43582054 -0.39802032 34.43582054 -0.39802032 35.70967102 -0.42474365 C41.30963907 -0.40361658 41.30963907 -0.40361658 43.82781982 1.88916016 C45.15828807 4.81506837 45.21774851 6.87711789 44.81219482 10.05395508 C43.26713016 12.09063122 42.09073326 12.91468586 39.81219482 14.05395508 C38.19592321 14.20135683 36.574185 14.29063775 34.95233154 14.35107422 C33.93357437 14.39100998 32.9148172 14.43094574 31.8651886 14.47209167 C30.19540199 14.5300164 30.19540199 14.5300164 28.49188232 14.58911133 C26.7594352 14.65398491 26.7594352 14.65398491 24.99198914 14.72016907 C21.22391975 14.85861264 17.45564181 14.98872121 13.68719482 15.11645508 C12.41620941 15.15998108 11.145224 15.20350708 9.83572388 15.24835205 C-20.90982974 16.28821323 -20.90982974 16.28821323 -33.38867188 16.40744019 C-35.32921236 16.4284559 -37.26952874 16.46766931 -39.20977783 16.50732422 C-40.35108154 16.50982178 -41.49238525 16.51231934 -42.66827393 16.51489258 C-44.10529663 16.52721924 -44.10529663 16.52721924 -45.5713501 16.53979492 C-49.01966029 15.89949099 -50.7148486 14.49570629 -53.18780518 12.05395508 C-53.762064 8.6084021 -53.59930036 6.81522116 -51.93780518 3.74145508 C-48.18188837 0.11967816 -42.91619303 0.84401262 -37.97296143 0.73754883 C-37.14541855 0.71654114 -36.31787567 0.69553345 -35.46525574 0.67388916 C-32.72704086 0.60694394 -29.98875118 0.54812626 -27.25030518 0.49145508 C-25.84542847 0.46168076 -25.84542847 0.46168076 -24.41217041 0.43130493 C-16.27514734 0.26271687 -8.13757284 0.13773219 0 0 Z " fill="#030704" transform="translate(362.18780517578125,132.946044921875)"/>
<path d="M0 0 C1.16545349 -0.02733215 2.33090698 -0.05466431 3.53167725 -0.08282471 C4.58154816 -0.11234222 5.63141907 -0.14185974 6.71310425 -0.17227173 C9.37493896 0.14129639 9.37493896 0.14129639 11.21279907 1.44046021 C13.1900968 4.33431106 12.78996213 6.76182204 12.37493896 10.14129639 C10.81243896 12.51629639 10.81243896 12.51629639 8.37493896 14.14129639 C2.90613759 15.16437889 -2.55263455 15.39656257 -8.09771729 15.60614014 C-9.97255676 15.68372293 -11.84739391 15.76136186 -13.722229 15.83905029 C-15.18423737 15.89769257 -15.18423737 15.89769257 -16.67578125 15.95751953 C-32.67621669 16.60181713 -48.65410418 17.36252811 -64.62530518 18.53167725 C-80.90744419 19.71503112 -80.90744419 19.71503112 -84.62506104 17.14129639 C-86.16669278 14.05803289 -85.92253639 11.53251539 -85.62506104 8.14129639 C-82.3397905 4.58076494 -78.32009363 4.44140264 -73.74224854 4.05535889 C-72.92376434 3.97814606 -72.10528015 3.90093323 -71.26199341 3.82138062 C-59.76393211 2.80041139 -48.22602909 2.26883533 -36.69830322 1.7086792 C-32.73603669 1.51561303 -28.77431088 1.3134136 -24.81256104 1.11004639 C-22.252692 0.98190584 -19.69279695 0.85428355 -17.13287354 0.72723389 C-15.9690213 0.66788666 -14.80516907 0.60853943 -13.60604858 0.5473938 C-9.07179533 0.33015938 -4.53592604 0.17679977 0 0 Z " fill="#040503" transform="translate(473.62506103515625,214.85870361328125)"/>
<path d="M0 0 C1.60856522 3.11659511 1.42213381 5.50012469 1 8.9375 C-2.10324952 13.10921012 -5.92993317 14.05489771 -10.75 15.3125 C-20.25557521 18.06742968 -26.38590328 21.80035951 -31.69140625 30.3984375 C-35.70285987 38.18185497 -37.52512203 46.68424332 -39.19140625 55.22265625 C-40.03512891 58.0554449 -40.61142525 59.2379372 -43 60.9375 C-46.86376862 61.42925237 -49.04711048 61.65384476 -52.21875 59.26953125 C-55.12131778 55.46945897 -54.18536561 52.28956732 -53.67578125 47.71875 C-50.62356927 30.64047718 -43.91453782 16.73941634 -29.7421875 6.26953125 C-22.19677807 1.74506988 -8.54040751 -4.53709149 0 0 Z " fill="#040703" transform="translate(436,460.0625)"/>
<path d="M0 0 C2.02182313 3.07317115 2.09005517 4.75747881 1.5625 8.375 C0.42578125 10.4921875 0.42578125 10.4921875 -1.4375 12.375 C-4.140625 13.1328125 -4.140625 13.1328125 -7.6875 13.5 C-8.68112549 13.6071936 -8.68112549 13.6071936 -9.69482422 13.71655273 C-19.00006235 14.64626898 -28.36096022 15.13920763 -37.69628906 15.67822266 C-38.9953418 15.75476074 -40.29439453 15.83129883 -41.6328125 15.91015625 C-42.79828613 15.975979 -43.96375977 16.04180176 -45.16455078 16.10961914 C-48.41667432 16.32661124 -48.41667432 16.32661124 -51.51831055 16.89135742 C-56.37025138 17.69521247 -61.21706758 17.60050626 -66.125 17.625 C-67.16978516 17.645625 -68.21457031 17.66625 -69.29101562 17.6875 C-70.29197266 17.69265625 -71.29292969 17.6978125 -72.32421875 17.703125 C-73.23389404 17.7124707 -74.14356934 17.72181641 -75.08081055 17.73144531 C-77.4375 17.375 -77.4375 17.375 -79.22973633 16.03808594 C-81.1338192 13.41617114 -80.88630478 11.51663349 -80.4375 8.375 C-78.10739035 5.12027942 -76.69737853 4.43049338 -72.73999023 3.58544922 C-71.24380643 3.43173431 -69.74551364 3.29773087 -68.24609375 3.1796875 C-67.03131348 3.06293167 -67.03131348 3.06293167 -65.79199219 2.94381714 C-63.15427605 2.6949837 -60.51509698 2.47201662 -57.875 2.25 C-56.06051052 2.08494813 -54.24613846 1.91860036 -52.43188477 1.75097656 C-47.10258461 1.26536673 -41.77071479 0.81525411 -36.4375 0.375 C-35.31045654 0.28091858 -35.31045654 0.28091858 -34.16064453 0.18493652 C-3.54904514 -2.36603009 -3.54904514 -2.36603009 0 0 Z " fill="#050402" transform="translate(541.4375,449.625)"/>
<path d="M0 0 C4.62 0 9.24 0 14 0 C15.09337184 18.30816248 15.54372388 36.63748684 15.95318604 54.97137451 C15.99556905 56.80799007 16.04313628 58.6444842 16.09130859 60.48095703 C16.16015233 63.19568038 16.21025086 65.90972285 16.25 68.625 C16.28202515 69.73210327 16.28202515 69.73210327 16.31469727 70.86157227 C16.33374054 73.68378572 16.3017905 75.55229878 14.69921875 77.9296875 C11.73577212 79.79631825 9.38218868 79.47469315 6 79 C2.75803949 76.13648698 1.74486993 73.73486117 1.36230469 69.54638672 C1.27914933 67.75829367 1.21699157 65.96914441 1.171875 64.1796875 C1.13305206 63.21524216 1.09422913 62.25079681 1.05422974 61.25712585 C0.93381459 58.13010983 0.84119443 55.00299301 0.75 51.875 C0.674453 49.73816022 0.59779085 47.60135959 0.52001953 45.46459961 C-0.00684637 30.30799015 -0.25066113 15.16499842 0 0 Z " fill="#040401" transform="translate(229,520)"/>
<path d="M0 0 C0 0.33 0 0.66 0 1 C-0.85722656 1.03738281 -1.71445312 1.07476562 -2.59765625 1.11328125 C-9.16193555 1.49070881 -13.97215174 2.30899631 -20 5 C-31.6511921 7.70761268 -43.79593317 7.60290587 -55.6875 8 C-57.96233763 8.0815678 -60.23715821 8.1636121 -62.51196289 8.24609375 C-83.07458306 8.97946057 -103.6418833 9.58059321 -124.20865917 10.18428993 C-150.8119936 10.96607396 -177.4061382 11.94223161 -204 13 C-204.33 11.68 -204.66 10.36 -205 9 C-162.91543701 6.34800299 -120.8603413 3.75529957 -78.70735168 2.50131226 C-77.61154282 2.46865265 -76.51573395 2.43599304 -75.38671875 2.40234375 C-74.32333786 2.37089264 -73.25995697 2.33944153 -72.16435242 2.30703735 C-62.07876064 1.99635807 -52.01038577 1.45921396 -41.9375 0.875 C-27.95051532 0.06459769 -14.01234081 -0.26285776 0 0 Z " fill="#42B6ED" transform="translate(570,226)"/>
<path d="M0 0 C0 0.33 0 0.66 0 1 C-50.71637191 6.09805817 -50.71637191 6.09805817 -66.9375 7.3125 C-67.92532471 7.38839355 -68.91314941 7.46428711 -69.9309082 7.54248047 C-76.62599478 8.01336177 -83.28997251 8.07252896 -90 8 C-89.67 7.01 -89.34 6.02 -89 5 C-81.69439889 4.4445358 -74.38845449 3.89375602 -67.08227539 3.34594727 C-64.60661174 3.15980352 -62.13102296 2.97266073 -59.65551758 2.78442383 C-19.19213599 -0.29030122 -19.19213599 -0.29030122 0 0 Z " fill="#41B0D7" transform="translate(475,705)"/>
<path d="M0 0 C1.0209375 0.00193359 1.0209375 0.00193359 2.0625 0.00390625 C4.69095097 0.59212814 5.51234134 1.17146885 7 3.4375 C7.40971773 8.13013371 7.12987347 12.71876391 7 17.4375 C2.38 17.4375 -2.24 17.4375 -7 17.4375 C-7.36899148 5.13778413 -7.36899148 5.13778413 -5.73828125 2.04296875 C-3.66471031 0.12782795 -2.78542039 -0.07913126 0 0 Z " fill="#080703" transform="translate(235,501.5625)"/>
<path d="M0 0 C0.66 0 1.32 0 2 0 C2 1.32 2 2.64 2 4 C17.84 3.01 17.84 3.01 34 2 C34.495 2.99 34.495 2.99 35 4 C23.79459386 6.03797319 12.97204507 6.2419571 1.625 6.125 C-0.09374472 6.11493937 -1.81249522 6.10581903 -3.53125 6.09765625 C-7.68764602 6.07591162 -11.84375679 6.04155604 -16 6 C-16 5.67 -16 5.34 -16 5 C-13.36 4.67 -10.72 4.34 -8 4 C-8 3.67 -8 3.34 -8 3 C-5.03 3.33 -2.06 3.66 1 4 C0.67 2.68 0.34 1.36 0 0 Z " fill="#55A381" transform="translate(435,380)"/>
<path d="M0 0 C-0.33 0.99 -0.66 1.98 -1 3 C-4.64059396 4.21353132 -8.1384443 4.36049758 -11.9375 4.5625 C-13.06853149 4.62618774 -13.06853149 4.62618774 -14.22241211 4.69116211 C-20.48406558 5.02135222 -26.73002167 5.10872795 -33 5 C-32.67 4.01 -32.34 3.02 -32 2 C-27.60439342 1.6636312 -23.2084812 1.33143414 -18.8125 1 C-17.56662109 0.90460937 -16.32074219 0.80921875 -15.03710938 0.7109375 C-13.83505859 0.62070312 -12.63300781 0.53046875 -11.39453125 0.4375 C-9.73707886 0.31181641 -9.73707886 0.31181641 -8.04614258 0.18359375 C-5.35346486 0.02130364 -2.69640611 -0.03510374 0 0 Z " fill="#3EB6E8" transform="translate(418,708)"/>
<path d="M0 0 C0 0.33 0 0.66 0 1 C-10.74631163 2.47317858 -21.14700916 3.28435784 -32 3 C-32.33 3.66 -32.66 4.32 -33 5 C-36.96 5 -40.92 5 -45 5 C-44.34 4.67 -43.68 4.34 -43 4 C-43 3.34 -43 2.68 -43 2 C-28.64743429 0.75526128 -14.41234659 -0.36131231 0 0 Z " fill="#5799BE" transform="translate(479,467)"/>
<path d="M0 0 C0 0.66 0 1.32 0 2 C0.66 2.33 1.32 2.66 2 3 C-0.72876308 3.33695862 -3.45793163 3.66968429 -6.1875 4 C-7.34088867 4.14308594 -7.34088867 4.14308594 -8.51757812 4.2890625 C-12.36928811 4.75192894 -16.11170851 5.12467468 -20 5 C-20 3.68 -20 2.36 -20 1 C-17.60533136 0.63552842 -15.2098929 0.2831706 -12.8125 -0.0625 C-11.80219727 -0.2181543 -11.80219727 -0.2181543 -10.77148438 -0.37695312 C-6.92138923 -0.92160073 -3.75911331 -1.04379263 0 0 Z " fill="#179BA3" transform="translate(564,610)"/>
<path d="M0 0 C0.33 0.66 0.66 1.32 1 2 C-2.20782086 2.95376567 -5.08187396 3.11621181 -8.421875 3.09765625 C-9.44667969 3.09443359 -10.47148437 3.09121094 -11.52734375 3.08789062 C-12.59082031 3.07951172 -13.65429688 3.07113281 -14.75 3.0625 C-15.82894531 3.05798828 -16.90789062 3.05347656 -18.01953125 3.04882812 C-20.67974383 3.03705727 -23.33984365 3.02061399 -26 3 C-26 2.67 -26 2.34 -26 2 C-22.60454455 1.66274171 -19.2085816 1.33088879 -15.8125 1 C-14.85279297 0.90460938 -13.89308594 0.80921875 -12.90429688 0.7109375 C-11.97294922 0.62070312 -11.04160156 0.53046875 -10.08203125 0.4375 C-9.22843018 0.35371094 -8.3748291 0.26992188 -7.49536133 0.18359375 C-4.98711079 -0.00094831 -2.51404403 -0.03149938 0 0 Z " fill="#22829A" transform="translate(469,382)"/>
<path d="M0 0 C0 0.99 0 1.98 0 3 C-3.96 3 -7.92 3 -12 3 C-8.62446616 -0.37553384 -4.59080647 -0.1311659 0 0 Z " fill="#51BCE4" transform="translate(351,237)"/>
<path d="M0 0 C0.33 0.66 0.66 1.32 1 2 C-2.9813783 3.3271261 -6.85045227 3.06915913 -11 3 C-10.67 2.34 -10.34 1.68 -10 1 C-6.6322481 0.06451336 -3.4815554 -0.09947301 0 0 Z " fill="#1B8A9D" transform="translate(469,382)"/>
</svg>
